<svg xmlns="http://www.w3.org/2000/svg" height="56.693" width="198.667" viewBox="0 0 198.667 56.693"><path d="M53.858 56.693H2.835A2.843 2.843 0 010 53.858V2.835A2.842 2.842 0 012.835 0h51.023a2.842 2.842 0 012.835 2.834v51.023a2.843 2.843 0 01-2.835 2.835" fill="#ee2840"/><path d="M36.372 30.027c.24 6.855-2.578 11.81-8.79 11.81-4.838 0-9.737-3.623-9.737-10.81V11.753H9.88v19.678c0 7.455 4.992 15.1 16.494 15.1 11.164 0 15.657-8.012 15.707-14.657 8.151 1.257 11.888-4.825 10.822-8.967-1.423 1.645-3.7 3.1-10.812 1.084V11.753h-5.718v10.299c-11.17-3.667-13.814 6.51-13.814 6.51s5.224-2.874 13.814 1.465" fill="#fff"/><path d="M77.68 23.24c-3.632 0-6.532-1.885-6.532-5.776V6.924h3.396v10.14c0 2.545 1.91 3.512 3.537 3.512 1.745 0 3.371-.967 3.371-3.419V6.924h3.349v10.233c0 3.961-2.83 6.084-7.122 6.084M96.406 22.957v-7.261c0-1.674-.897-2.523-2.382-2.523-.849 0-1.674.259-2.264.636v9.148h-3.135V11.051l3.018-.236-.048 1.65h.096c.872-.966 2.31-1.815 3.96-1.815 2.122 0 3.867 1.414 3.867 4.127v8.18h-3.112M102.966 22.957V10.933h3.159v12.024zm1.58-14.241c-.897 0-1.652-.754-1.652-1.673 0-.92.755-1.628 1.651-1.628.92 0 1.65.708 1.65 1.628a1.66 1.66 0 01-1.65 1.673M115.578 23.028h-2.641l-4.81-12.095h3.537l2.145 6.366c.355.99.637 2.688.637 2.688s.283-1.675.636-2.688l2.146-6.366h3.183l-4.833 12.095M126.858 12.702c-1.51 0-2.453 1.437-2.617 2.876h5.068c0-1.581-.895-2.876-2.451-2.876zm5.234 4.69h-7.97c.07 1.982 1.39 3.49 3.608 3.49 1.415 0 2.688-.306 4.103-.849l-.142 2.217c-1.462.59-2.9.967-4.81.967-3.608 0-5.8-2.5-5.8-6.036 0-3.843 2.5-6.53 6.036-6.53 3.419 0 5.092 2.333 5.092 5.021 0 .542-.046 1.296-.117 1.72M142.193 14.21a4.523 4.523 0 00-2.169-.59c-.732 0-1.439.307-1.84.731v8.606h-3.135V11.051l2.971-.26-.095 2.146h.095c.612-1.344 1.77-2.287 3.065-2.287.566 0 1.203.141 1.603.377l-.495 3.183M147.708 23.217c-1.556 0-2.807-.33-3.844-.896l.355-2.358c1.082.566 2.428.943 3.582.943.991 0 1.887-.33 1.887-1.202 0-1.91-5.447-1.486-5.447-5.33 0-2.427 2.216-3.724 4.787-3.724 1.273 0 2.595.354 3.465.731l-.353 2.263c-.919-.353-2.145-.683-3.277-.683-.85 0-1.579.33-1.579 1.013 0 1.887 5.47 1.509 5.47 5.305 0 2.617-2.289 3.938-5.046 3.938M155.516 22.957V10.933h3.161v12.024zm1.58-14.241c-.895 0-1.65-.754-1.65-1.673 0-.92.755-1.628 1.65-1.628.92 0 1.65.708 1.65 1.628a1.66 1.66 0 01-1.65 1.673M165.832 23.217c-2.123 0-3.49-1.32-3.49-3.348 0-.684.071-3.82.071-5.706v-1.014h-1.13v-1.225l3.889-3.608h.307v2.617h3.818v2.216h-3.818c0 .189-.047 4.032-.047 5.659 0 1.273.753 1.839 1.91 1.839.613 0 1.342-.07 2.051-.307v2.17a9.227 9.227 0 01-3.561.707M176.593 12.702c-1.509 0-2.453 1.437-2.617 2.876h5.07c0-1.581-.897-2.876-2.453-2.876zm5.235 4.69h-7.97c.071 1.982 1.391 3.49 3.607 3.49 1.415 0 2.688-.306 4.103-.849l-.141 2.217c-1.463.59-2.9.967-4.81.967-3.608 0-5.8-2.5-5.8-6.036 0-3.843 2.499-6.53 6.035-6.53 3.42 0 5.095 2.333 5.095 5.021 0 .542-.048 1.296-.119 1.72M184.787 22.957V10.933h3.16v12.024zm1.578-14.241c-.894 0-1.649-.754-1.649-1.673 0-.92.755-1.628 1.65-1.628.92 0 1.65.708 1.65 1.628 0 .919-.73 1.673-1.65 1.673M195.103 23.217c-2.122 0-3.49-1.32-3.49-3.348 0-.684.071-3.82.071-5.706v-1.014h-1.132v-1.225l3.89-3.608h.306v2.617h3.82v2.216h-3.82c0 .189-.047 4.032-.047 5.659 0 1.273.755 1.839 1.911 1.839.613 0 1.344-.07 2.052-.307v2.17a9.238 9.238 0 01-3.561.707M78.485 34.454c-.212-.637-.4-1.887-.4-1.887s-.19 1.203-.425 1.887l-1.65 4.81h4.15zm3.749 11.317l-1.462-4.22H75.42l-1.415 4.22H70.54l5.824-16.033h3.725l5.823 16.033h-3.678M95.89 45.771v-7.263c0-1.673-.897-2.522-2.383-2.522-.849 0-1.673.26-2.263.637v9.148h-3.136V33.864l3.018-.236-.047 1.651h.094c.873-.967 2.31-1.815 3.961-1.815 2.122 0 3.868 1.414 3.868 4.126v8.181h-3.113M105.95 46.03c-2.123 0-3.49-1.32-3.49-3.347 0-.684.07-3.82.07-5.707v-1.013h-1.13v-1.227l3.889-3.607h.307v2.617h3.82v2.217h-3.82c0 .189-.047 4.03-.047 5.658 0 1.274.754 1.839 1.909 1.839.613 0 1.345-.07 2.052-.306v2.17a9.205 9.205 0 01-3.56.706M125.696 45.842h-2.499l-2.287-5.965c-.353-.92-.589-2.5-.589-2.5s-.354 1.557-.685 2.5l-2.216 5.965h-2.428l-4.126-12.096h3.442l1.698 5.919c.283.942.565 2.758.565 2.758s.354-1.768.684-2.735l2.099-5.942h2.311l2.193 5.942c.377.967.66 2.688.66 2.688s.26-1.769.565-2.735l1.674-5.895h3.089l-4.15 12.096M136.577 35.515c-1.509 0-2.452 1.437-2.617 2.876h5.07c0-1.58-.897-2.876-2.453-2.876zm5.235 4.692h-7.97c.071 1.98 1.393 3.489 3.609 3.489 1.413 0 2.686-.306 4.102-.848l-.142 2.216c-1.462.589-2.899.966-4.81.966-3.608 0-5.8-2.498-5.8-6.036 0-3.842 2.5-6.53 6.036-6.53 3.419 0 5.094 2.333 5.094 5.02 0 .544-.048 1.298-.119 1.723M151.912 37.024a4.513 4.513 0 00-2.17-.59c-.73 0-1.438.306-1.838.73v8.607h-3.135V33.864l2.97-.26-.094 2.147h.094c.613-1.344 1.769-2.287 3.065-2.287.567 0 1.204.14 1.603.376l-.495 3.184M159.725 35.94c-.802 0-1.604.259-2.146.636v6.625c.448.307 1.25.518 1.933.518 2.075 0 3.255-1.65 3.255-3.842 0-2.452-1.203-3.938-3.042-3.938zm-.354 9.997c-.66 0-1.391-.166-1.792-.378v6.225h-3.135v-17.92l3.016-.236-.047 1.604h.096c.872-1.061 2.239-1.768 3.583-1.768 2.972 0 4.857 2.522 4.857 5.87 0 3.962-2.57 6.603-6.578 6.603M173.656 35.515c-1.508 0-2.452 1.437-2.616 2.876h5.07c0-1.58-.897-2.876-2.454-2.876zm5.236 4.692h-7.97c.07 1.98 1.39 3.489 3.607 3.489 1.415 0 2.688-.306 4.103-.848l-.141 2.216c-1.463.589-2.9.966-4.811.966-3.608 0-5.8-2.498-5.8-6.036 0-3.842 2.5-6.53 6.036-6.53 3.42 0 5.093 2.333 5.093 5.02 0 .544-.048 1.298-.117 1.723M189.628 45.771v-7.263c0-1.673-.895-2.522-2.381-2.522-.848 0-1.675.26-2.264.637v9.148h-3.136V33.864l3.018-.236-.046 1.651h.093c.873-.967 2.312-1.815 3.961-1.815 2.123 0 3.867 1.414 3.867 4.126v8.181h-3.112" fill="#213661"/></svg>